<svg width="211" height="211" viewBox="0 0 211 211" fill="none" xmlns="http://www.w3.org/2000/svg">
<g clip-path="url(#clip0_339_388)">
<circle cx="104.888" cy="104.888" r="99.0933" transform="rotate(-30 104.888 104.888)" fill="#121642" stroke="#D6223B" strokeWidth="2.13104"/>
<path d="M105.448 149.937L105.455 149.939C112.564 151.925 120.001 150.613 127.701 146.168C135.894 141.438 141.083 135.394 143.083 128.005C145.14 120.581 143.725 112.756 139.014 104.596L126.154 82.3217L125.63 81.4137L124.722 81.9379L118.916 85.2898L118.008 85.814L118.533 86.722L122.601 93.769L86.4708 114.629L82.4022 107.582L81.8779 106.674L80.9699 107.198L75.1644 110.55L74.2564 111.074L74.7806 111.982L88.0273 134.926C92.6033 142.852 98.3979 147.918 105.448 149.937ZM107.013 140.1L107.013 140.1L107.004 140.098C102.437 138.798 98.3423 135.191 94.7786 129.019L91.3869 123.144L127.517 102.284L131.392 108.996C134.742 114.798 135.563 119.982 134.085 124.634L134.082 124.643L134.08 124.652C132.679 129.34 128.917 133.554 122.543 137.234C116.76 140.573 111.61 141.452 107.013 140.1Z" stroke="#D6223B" strokeWidth="2.09694"/>
<path d="M89.2489 111.757L89.8147 112.264L90.4721 111.884L97.0349 108.095L97.6884 107.718L97.5381 106.978L92.6911 83.1172L110.701 99.3672L111.267 99.8781L111.927 99.4968L118.322 95.8049L118.984 95.4224L118.822 94.6746L111.086 59.0074L117.575 55.2609L118.483 54.7366L117.959 53.8286L114.961 48.637L114.437 47.729L113.529 48.2532L96.1967 58.2601L95.2887 58.7843L95.8129 59.6924L98.8103 64.884L99.3345 65.792L100.243 65.2678L103.537 63.3655L107.119 80.1454L107.12 80.1484L108.442 86.2511L103.484 81.7023L103.479 81.6985L90.2022 69.3851L89.635 68.8591L88.965 69.2459L82.5705 72.9378L81.9025 73.3234L82.0718 74.0759L85.9405 91.2693L85.9404 91.2693L85.9418 91.2753L87.508 98.0492L82.1877 93.2053L82.1846 93.2026L70.3591 82.521L74.5804 80.0839L75.4884 79.5596L74.9641 78.6516L71.9667 73.4599L71.4425 72.5519L70.5345 73.0762L51.5192 84.0546L50.6112 84.5789L51.1355 85.4869L54.1329 90.6786L54.6571 91.5866L55.5651 91.0623L61.9753 87.3614L89.2489 111.757Z" stroke="#D6223B" strokeWidth="2.09694"/>
<path d="M33.3236 153.683L27.3176 143.28L34.2095 139.301L35.2459 141.096L30.5311 143.818L31.9712 146.313L36.4192 143.745L37.4015 145.446L32.9535 148.014L34.4644 150.631L39.1791 147.909L40.2155 149.704L33.3236 153.683ZM45.6904 146.783C43.2176 148.211 40.9709 147.999 39.7413 146.152L39.6674 146.041L41.722 144.855L41.7822 144.926C42.3854 145.654 43.5346 145.663 44.7241 144.977C45.928 144.282 46.3812 143.318 45.9233 142.525L45.9192 142.518C45.5113 141.812 44.7955 141.754 43.351 142.232L42.1304 142.649C39.8385 143.424 38.2344 143.043 37.3312 141.478L37.327 141.471C36.2282 139.568 37.1621 137.356 39.469 136.024C41.8768 134.634 44.0498 134.985 45.2038 136.75L45.29 136.883L43.2355 138.07L43.1783 137.987C42.5998 137.235 41.5629 137.17 40.4887 137.791C39.3755 138.443 39.0006 139.342 39.4293 140.084L39.4334 140.092C39.8122 140.748 40.5662 140.822 41.9003 140.369L43.1323 139.955C45.5592 139.131 47.0516 139.452 47.9964 141.088L48.0006 141.095C49.1535 143.092 48.3145 145.268 45.6904 146.783Z" fill="white"/>
<path d="M162.82 64.8079C165.329 63.3595 168.175 64.0613 170.211 67.5866L170.219 67.601C172.188 71.0109 171.723 74.0186 169.012 75.5836C167.001 76.7449 164.813 76.451 163.575 75.0224L163.523 74.9658L165.671 73.7255L165.726 73.7707C166.348 74.248 167.17 74.3404 168.021 73.8493C169.542 72.971 169.368 71.1391 168.386 69.255C168.314 69.1138 168.238 68.9655 168.165 68.8543L168.128 68.8751C168.275 70.0784 167.66 71.3759 166.254 72.1875C164.242 73.3488 162.045 72.7236 160.918 70.7699L160.909 70.7555C159.681 68.6288 160.506 66.144 162.82 64.8079ZM165.953 70.2178C167.041 69.5893 167.441 68.3495 166.829 67.2898L166.825 67.2826C166.217 66.2301 164.914 65.9054 163.848 66.5215C162.788 67.1333 162.392 68.4288 162.987 69.4597L162.995 69.4741C163.62 70.5555 164.871 70.8421 165.953 70.2178ZM178.759 69.9563C176.279 71.3881 173.852 71.146 172.819 69.3581L172.811 69.3437C172.033 67.9956 172.46 66.4222 173.701 65.3408L173.676 65.2975C172.301 65.697 170.983 65.2951 170.342 64.1848L170.334 64.1704C169.405 62.5628 170.296 60.4917 172.545 59.1931C174.787 57.8987 177.033 58.1592 177.961 59.7668L177.969 59.7813C178.61 60.8915 178.292 62.2383 177.266 63.2247L177.291 63.268C178.84 62.7386 180.417 63.155 181.195 64.5031L181.204 64.5175C182.236 66.3053 181.239 68.5245 178.759 69.9563ZM175.092 63.6051C176.073 63.039 176.413 62.0639 175.93 61.2276L175.922 61.2132C175.443 60.3841 174.425 60.2028 173.452 60.7647C172.479 61.3266 172.12 62.3029 172.599 63.132L172.607 63.1464C173.09 63.9826 174.112 64.1712 175.092 63.6051ZM177.843 68.3703C178.975 67.7169 179.392 66.5916 178.864 65.6761L178.856 65.6616C178.323 64.7389 177.15 64.5221 176.004 65.1839C174.857 65.8457 174.451 66.974 174.984 67.8967L174.993 67.9112C175.521 68.8267 176.704 69.028 177.843 68.3703Z" fill="white"/>
<path d="M27.0432 100.435L15.1463 98.7759L15.7799 94.2332C16.2767 90.6715 18.69 88.8565 22.4577 89.382L22.4742 89.3843C26.2502 89.911 28.1748 92.3227 27.6768 95.8926L27.0432 100.435ZM25.3293 97.658L25.5743 95.9019C25.8848 93.6759 24.7006 92.2836 22.1283 91.9248L22.1118 91.9225C19.6302 91.5763 18.0962 92.6315 17.7914 94.8163L17.5465 96.5724L25.3293 97.658Z" fill="white"/>
<path d="M29.1241 87.1515L19.0112 79.4301L19.9297 76.6213L32.6483 76.3753L31.8281 78.8834L28.7768 78.8402L27.4572 82.8753L29.9443 84.6434L29.1241 87.1515ZM21.6768 78.7779L25.8502 81.7367L26.8076 78.8093L21.6923 78.7304L21.6768 78.7779Z" fill="white"/>
<path d="M35.4977 70.5641L23.0087 68.4472L24.3194 65.9952L33.9395 68.0227L33.963 67.9787L26.9291 61.1132L28.2437 58.6538L36.9418 67.8625L35.4977 70.5641Z" fill="white"/>
<path d="M40.9143 61.4675L31.1429 54.4812L32.6051 52.4362L42.3765 59.4225L40.9143 61.4675Z" fill="white"/>
<path d="M44.7649 56.0928L36.0017 47.8772L39.1388 44.531C41.5983 41.9075 44.6166 41.8161 47.3919 44.418L47.4041 44.4294C50.1854 47.037 50.3672 50.1171 47.902 52.7466L44.7649 56.0928ZM44.9661 52.8354L46.1788 51.5419C47.716 49.9022 47.5513 48.0819 45.6566 46.3055L45.6444 46.2941C43.8165 44.5804 41.9547 44.558 40.446 46.1673L39.2333 47.4608L44.9661 52.8354Z" fill="white"/>
<path d="M61.041 41.1749L52.1192 32.5261L54.3511 31.1817L60.4181 37.5755L60.4608 37.5498L57.9164 29.0341L59.8061 27.8959L66.144 34.1265L66.1868 34.1008L63.3785 25.744L65.6105 24.3997L69.0773 36.3343L66.9737 37.6014L60.9307 31.8442L60.8879 31.87L63.1445 39.9079L61.041 41.1749Z" fill="white"/>
<path d="M74.2307 33.7811L74.2034 21.0575L76.9912 20.0771L84.9263 30.0197L82.437 30.8952L80.6144 28.4477L76.6094 29.8561L76.72 32.9057L74.2307 33.7811ZM76.3431 22.7758L76.535 27.8881L79.4406 26.8662L76.3902 22.7592L76.3431 22.7758Z" fill="white"/>
<path d="M90.5017 28.7656L85.7433 17.287L88.3254 16.9384L91.3579 25.2145L91.4074 25.2078L92.4501 16.3815L94.6363 16.0864L97.9822 24.3202L98.0317 24.3135L98.7693 15.5284L101.351 15.1798L99.7989 27.5104L97.3653 27.839L94.1022 20.1568L94.0527 20.1635L92.9353 28.4371L90.5017 28.7656Z" fill="white"/>
<path d="M106.326 27.3229L107.005 15.33L114.95 15.7797L114.833 17.8491L109.398 17.5415L109.235 20.4171L114.363 20.7073L114.252 22.6688L109.124 22.3785L108.953 25.3955L114.389 25.7031L114.272 27.7725L106.326 27.3229Z" fill="white"/>
<path d="M117.969 28.2353L120.507 16.4942L125.356 17.5421C127.992 18.1118 129.252 19.8489 128.742 22.2085L128.739 22.2248C128.405 23.7707 127.305 24.8787 125.892 25.11L127.367 30.2661L124.584 29.6647L123.315 24.9363L121.346 24.5108L120.427 28.7663L117.969 28.2353ZM121.749 22.6476L123.873 23.1065C125.093 23.3702 125.975 22.8369 126.224 21.6815L126.228 21.6652C126.471 20.5424 125.852 19.6593 124.64 19.3973L122.549 18.9454L121.749 22.6476Z" fill="white"/>
<path d="M135.14 33.3236C132.286 32.1668 131.142 29.7811 132.145 27.3046L135.062 20.1066L137.392 21.0507L134.56 28.0405C133.975 29.4832 134.444 30.7421 135.941 31.3486C137.437 31.9551 138.643 31.3747 139.227 29.932L142.06 22.9422L144.39 23.8863L141.473 31.0844C140.472 33.5532 138.01 34.4866 135.14 33.3236Z" fill="white"/>
<path d="M150.232 183.134L154.204 180.841C157.325 179.038 158.044 176.038 156.138 172.736L156.129 172.722C154.227 169.427 151.312 168.64 148.198 170.438L144.226 172.731L150.232 183.134ZM151.368 180.075L147.439 173.269L148.975 172.383C150.885 171.28 152.66 171.841 153.913 174.011L153.922 174.025C155.22 176.274 154.85 178.064 152.904 179.188L151.368 180.075Z" fill="white"/>
<path d="M144.172 172.761L140.2 175.054C137.078 176.856 136.36 179.857 138.266 183.159L138.274 183.173C140.176 186.468 143.092 187.255 146.206 185.457L150.178 183.164L144.172 172.761ZM143.036 175.82L146.965 182.625L145.429 183.512C143.519 184.615 141.743 184.054 140.491 181.884L140.482 181.87C139.184 179.62 139.554 177.83 141.5 176.707L143.036 175.82Z" fill="white"/>
<path d="M49.3607 137.817L46.8759 133.513L45.3728 134.381L44.8546 133.484L48.953 131.117L49.4711 132.015L47.9644 132.885L50.4493 137.189L49.3607 137.817Z" fill="white"/>
<line x1="49.6017" y1="142.959" x2="54.7692" y2="139.975" stroke="white" strokeWidth="1.27862"/>
</g>
<defs>
<clipPath id="clip0_339_388">
<rect width="211" height="211" fill="white"/>
</clipPath>
</defs>
</svg>
