<svg width="693" height="289" viewBox="0 0 693 289" fill="none" xmlns="http://www.w3.org/2000/svg">
<path d="M126.493 177.911C125.71 179.335 124.536 180.047 122.97 180.047C121.688 180.047 120.692 179.62 119.98 178.765C119.268 177.982 118.912 177.022 118.912 175.883C118.912 175.74 118.948 174.281 119.019 171.505C119.09 168.658 119.126 164.85 119.126 160.081C119.126 154.03 119.126 147.588 119.126 140.755C119.197 133.922 119.126 126.982 118.912 119.935C118.699 112.888 118.236 105.877 117.524 98.9009C116.812 91.9252 115.709 85.2698 114.214 78.9347C112.72 72.5285 110.762 66.5849 108.342 61.104C105.922 55.6231 102.825 50.8896 99.0529 46.9035C95.2803 42.8462 90.7959 39.6787 85.5998 37.4009C80.4036 35.1231 74.2821 33.9842 67.2352 33.9842C60.3307 33.9842 54.0312 35.1943 48.3367 37.6144C42.6423 39.9634 37.7308 43.1665 33.6024 47.2238C29.5451 51.2099 26.3775 55.9078 24.0998 61.3175C21.8932 66.6561 20.7899 72.3149 20.7899 78.2941C20.7899 83.4903 21.6796 88.295 23.4591 92.7082C25.3098 97.0502 27.8012 100.823 30.9331 104.026C34.065 107.229 37.6952 109.756 41.8237 111.607C46.0234 113.386 50.4722 114.276 55.1701 114.276C58.6579 114.276 61.861 113.813 64.7794 112.888C67.6979 111.891 70.1892 110.824 72.2534 109.685C74.3176 108.546 75.9192 107.514 77.0581 106.588C78.197 105.592 78.802 105.094 78.8732 105.094C79.6562 104.311 80.6171 103.919 81.756 103.919C82.8237 103.919 83.7491 104.311 84.5321 105.094C85.315 105.805 85.7065 106.695 85.7065 107.763C85.7065 108.831 85.315 109.756 84.5321 110.539C84.3897 110.681 83.5711 111.393 82.0763 112.674C80.6527 113.884 78.6597 115.201 76.0972 116.625C73.5347 118.048 70.4739 119.33 66.9149 120.469C63.427 121.607 59.5477 122.177 55.2768 122.177C49.3689 122.177 43.8168 121.074 38.6206 118.867C33.4956 116.66 29.0112 113.6 25.1675 109.685C21.3237 105.77 18.263 101.143 15.9852 95.8045C13.7786 90.3948 12.6753 84.558 12.6753 78.2941C12.6753 71.1761 14.0277 64.4495 16.7326 58.1144C19.5086 51.7794 23.3168 46.2629 28.1571 41.5649C32.9973 36.7958 38.6918 33.0589 45.2404 30.354C51.8602 27.578 59.0494 26.1899 66.8081 26.1899C76.8446 26.1899 85.315 28.005 92.2196 31.6353C99.1241 35.1943 104.819 39.999 109.303 46.0493C113.858 52.0285 117.346 58.9686 119.766 66.8696C122.258 74.6995 124.073 82.8853 125.212 91.4269C126.351 99.9686 127.027 108.581 127.24 117.265C127.454 125.878 127.561 133.993 127.561 141.609C127.561 143.033 127.561 144.563 127.561 146.2C127.561 147.838 127.525 149.475 127.454 151.112C127.454 152.749 127.418 154.315 127.347 155.81C127.347 157.233 127.347 158.408 127.347 159.333L198.884 26.9373C199.524 25.5849 200.663 24.9087 202.3 24.9087C203.51 24.9087 204.471 25.3358 205.183 26.1899C205.966 26.9729 206.358 27.8983 206.358 28.966C206.358 29.3219 206.144 30.6387 205.717 32.9165C205.29 35.1231 204.756 38.0771 204.115 41.7785C203.546 45.4799 202.905 49.7863 202.194 54.6978C201.482 59.538 200.805 64.7698 200.165 70.3931C199.595 76.0163 199.097 81.8887 198.67 88.0103C198.243 94.0606 198.029 100.111 198.029 106.161C198.029 116.34 198.563 125.38 199.631 133.281C200.699 141.111 202.443 147.731 204.863 153.14C207.283 158.55 210.45 162.643 214.365 165.419C218.351 168.195 223.227 169.583 228.993 169.583C234.189 169.583 239.136 168.48 243.834 166.273C248.532 163.996 252.91 160.899 256.967 156.984C261.024 153.069 264.797 148.478 268.285 143.211C271.773 137.943 274.904 132.285 277.681 126.234C280.528 120.113 283.019 113.778 285.154 107.229C287.361 100.68 289.176 94.1674 290.6 87.6899C292.095 81.2125 293.198 74.913 293.91 68.7915C294.693 62.67 295.084 57.0467 295.084 51.9217C295.084 42.6682 294.016 34.1622 291.881 26.4035C289.817 18.5736 286.471 12.203 281.845 7.2915C281.133 6.5797 280.777 5.68994 280.777 4.62223C280.777 3.48334 281.168 2.52241 281.951 1.73942C282.805 0.956435 283.766 0.564941 284.834 0.564941C286.044 0.564941 287.005 0.956435 287.717 1.73942C290.422 4.65782 292.735 7.96772 294.657 11.6691C296.65 15.2993 298.252 19.2854 299.462 23.6274C300.743 27.8983 301.668 32.4182 302.238 37.1873C302.878 41.9564 303.199 46.9035 303.199 52.0285C303.199 59.8583 302.451 68.4 300.957 77.6535C299.462 86.8358 297.255 96.0892 294.337 105.414C291.418 114.667 287.824 123.636 283.553 132.32C279.353 141.004 274.477 148.692 268.925 155.383C263.444 162.002 257.358 167.341 250.667 171.398C243.977 175.384 236.752 177.377 228.993 177.377C221.661 177.377 215.504 175.74 210.522 172.466C205.539 169.121 201.517 164.351 198.457 158.159C195.467 151.895 193.296 144.314 191.944 135.417C190.662 126.519 190.022 116.482 190.022 105.307C190.022 100.68 190.164 95.9113 190.449 90.9998C190.805 86.0884 191.196 81.2837 191.623 76.5858C192.121 71.8879 192.62 67.3679 193.118 63.0259C193.687 58.6839 194.221 54.7689 194.72 51.2811L126.493 177.911Z" fill="#121642"/>
<path d="M392.032 143.211C391.747 143.78 391.142 144.99 390.217 146.841C389.363 148.621 388.224 150.685 386.8 153.034C385.448 155.383 383.846 157.838 381.996 160.401C380.145 162.963 378.081 165.312 375.803 167.448C373.525 169.583 371.069 171.363 368.436 172.786C365.802 174.139 363.026 174.815 360.108 174.815C355.979 174.815 352.491 173.498 349.644 170.864C346.868 168.231 344.839 164.921 343.558 160.935C341.138 164.992 338.255 168.231 334.91 170.651C331.564 173 328.219 174.174 324.873 174.174C322.24 174.174 319.855 173.712 317.72 172.786C315.584 171.79 313.769 170.437 312.274 168.729C310.779 166.949 309.605 164.885 308.751 162.536C307.968 160.187 307.576 157.625 307.576 154.849C307.576 149.297 308.502 144.421 310.352 140.221C312.274 135.95 314.694 132.391 317.613 129.544C320.531 126.697 323.734 124.561 327.222 123.138C330.781 121.714 334.198 121.002 337.472 121.002C339.679 121.002 341.707 121.323 343.558 121.963C345.409 122.533 346.975 123.173 348.256 123.885C349.608 124.597 350.641 125.273 351.352 125.914C352.064 126.483 352.456 126.804 352.527 126.875C353.31 127.8 353.701 128.761 353.701 129.758C353.701 130.825 353.31 131.786 352.527 132.64C351.744 133.423 350.819 133.815 349.751 133.815C348.612 133.815 347.651 133.423 346.868 132.64C346.726 132.498 346.405 132.249 345.907 131.893C345.409 131.466 344.733 131.039 343.878 130.612C343.024 130.185 341.992 129.829 340.782 129.544C339.643 129.188 338.326 129.01 336.832 129.01C334.625 129.01 332.276 129.509 329.785 130.505C327.293 131.502 325.016 133.068 322.951 135.203C320.887 137.267 319.143 139.901 317.72 143.104C316.367 146.236 315.691 149.973 315.691 154.315C315.691 155.667 315.833 157.055 316.118 158.479C316.403 159.831 316.901 161.077 317.613 162.216C318.325 163.355 319.286 164.28 320.496 164.992C321.706 165.704 323.2 166.06 324.98 166.06C326.261 166.06 327.72 165.633 329.358 164.778C331.066 163.924 332.668 162.607 334.162 160.828C335.728 159.048 337.116 156.806 338.326 154.101C339.608 151.397 340.497 148.193 340.996 144.492C341.138 143.496 341.601 142.677 342.384 142.036C343.167 141.324 344.092 140.969 345.16 140.969C346.156 140.969 347.01 141.36 347.722 142.143C348.505 142.926 348.932 143.816 349.003 144.812C349.075 146.165 349.217 148.087 349.431 150.578C349.644 152.998 350.107 155.418 350.819 157.838C351.602 160.259 352.74 162.358 354.235 164.138C355.73 165.917 357.794 166.807 360.428 166.807C362.136 166.807 363.809 166.344 365.446 165.419C367.154 164.494 368.792 163.284 370.358 161.789C371.995 160.223 373.525 158.479 374.949 156.557C376.444 154.564 377.796 152.571 379.006 150.578C380.216 148.585 381.284 146.663 382.209 144.812C383.135 142.962 383.917 141.36 384.558 140.008C384.914 139.225 385.412 138.62 386.053 138.193C386.765 137.765 387.512 137.552 388.295 137.552C389.505 137.552 390.466 138.015 391.178 138.94C391.961 139.794 392.352 140.719 392.352 141.716C392.352 142.214 392.246 142.713 392.032 143.211Z" fill="#121642"/>
<path d="M459.511 143.318C459.298 147.019 458.799 150.756 458.016 154.528C457.233 158.23 455.988 161.575 454.279 164.565C452.642 167.555 450.471 170.01 447.766 171.932C445.062 173.783 441.716 174.708 437.73 174.708C435.239 174.708 433.032 174.317 431.11 173.534C429.26 172.822 427.622 171.861 426.199 170.651C424.846 169.37 423.707 167.946 422.782 166.38C421.857 164.743 421.074 163.035 420.433 161.255C417.942 165.384 414.988 168.587 411.571 170.864C408.226 173.071 404.88 174.174 401.535 174.174C398.83 174.174 396.374 173.676 394.168 172.68C392.032 171.683 390.181 170.295 388.615 168.515C387.121 166.665 385.946 164.458 385.092 161.896C384.238 159.333 383.811 156.45 383.811 153.247C383.811 147.909 384.273 143.318 385.199 139.474C386.195 135.559 387.263 132.356 388.402 129.864C389.612 127.373 390.715 125.522 391.712 124.312C392.708 123.031 393.207 122.39 393.207 122.39C393.562 121.963 393.99 121.643 394.488 121.43C395.057 121.216 395.627 121.109 396.196 121.109C397.335 121.109 398.26 121.536 398.972 122.39C399.755 123.173 400.147 124.099 400.147 125.167C400.147 125.949 399.862 126.804 399.293 127.729C399.008 128.156 398.438 128.975 397.584 130.185C396.801 131.395 395.983 133.032 395.128 135.096C394.274 137.16 393.491 139.687 392.779 142.677C392.139 145.667 391.819 149.19 391.819 153.247C391.819 157.447 392.673 160.65 394.381 162.857C396.089 164.992 398.474 166.06 401.535 166.06C403.029 166.06 404.667 165.668 406.446 164.885C408.226 164.031 409.898 162.75 411.464 161.042C413.03 159.333 414.383 157.162 415.522 154.528C416.661 151.895 417.372 148.798 417.657 145.239L419.045 126.875C419.116 125.807 419.543 124.917 420.326 124.206C421.181 123.494 422.141 123.138 423.209 123.138C424.419 123.138 425.38 123.601 426.092 124.526C426.804 125.38 427.16 126.377 427.16 127.515L425.985 145.133C425.772 148.905 425.878 152.144 426.306 154.849C426.804 157.554 427.587 159.796 428.654 161.575C429.722 163.284 431.039 164.565 432.605 165.419C434.171 166.202 435.915 166.594 437.837 166.594C440.399 166.594 442.57 165.846 444.35 164.351C446.129 162.857 447.553 160.828 448.621 158.265C449.688 155.703 450.436 152.749 450.863 149.403C451.361 145.987 451.61 142.392 451.61 138.62C451.61 134.135 451.361 130.398 450.863 127.409C450.365 124.419 450.115 122.426 450.115 121.43C450.115 120.362 450.507 119.436 451.29 118.653C452.073 117.799 453.034 117.372 454.173 117.372C455.169 117.372 456.023 117.693 456.735 118.333C457.447 118.903 457.91 119.686 458.123 120.682C458.194 120.967 458.408 121.785 458.764 123.138C459.12 124.49 459.618 126.127 460.259 128.049C460.899 129.9 461.718 131.893 462.714 134.028C463.782 136.093 465.028 138.015 466.451 139.794C467.946 141.574 469.619 143.068 471.47 144.278C473.391 145.417 475.562 145.987 477.983 145.987C479.335 145.987 480.474 145.738 481.399 145.239C482.396 144.67 483.214 144.029 483.855 143.318C484.496 142.606 484.958 141.93 485.243 141.289C485.599 140.648 485.812 140.257 485.884 140.114C486.24 139.331 486.738 138.726 487.378 138.299C488.09 137.801 488.838 137.552 489.621 137.552C490.831 137.552 491.792 138.015 492.503 138.94C493.286 139.794 493.678 140.719 493.678 141.716C493.678 142.57 493.286 143.709 492.503 145.133C491.792 146.556 490.76 147.944 489.407 149.297C488.055 150.578 486.382 151.717 484.389 152.713C482.467 153.639 480.332 154.101 477.983 154.101C475.918 154.101 473.996 153.817 472.217 153.247C470.437 152.607 468.765 151.788 467.199 150.792C465.704 149.795 464.316 148.656 463.035 147.375C461.753 146.094 460.579 144.741 459.511 143.318Z" fill="#121642"/>
<path d="M498.91 161.255C500.404 163.319 502.326 164.992 504.675 166.273C507.024 167.483 509.907 168.088 513.324 168.088C516.812 168.088 519.979 167.27 522.826 165.633C525.674 163.924 528.272 161.718 530.621 159.013C532.97 156.308 535.069 153.283 536.92 149.937C538.771 146.592 540.444 143.246 541.938 139.901C542.294 139.118 542.792 138.548 543.433 138.193C544.074 137.765 544.786 137.552 545.569 137.552C546.779 137.552 547.74 137.979 548.451 138.833C549.234 139.687 549.626 140.613 549.626 141.609C549.626 141.965 549.59 142.285 549.519 142.57C549.448 142.784 549.341 143.033 549.199 143.318C544.287 154.137 538.913 162.287 533.076 167.768C527.311 173.249 520.762 176.061 513.431 176.203C508.733 176.203 504.675 175.278 501.259 173.427C497.842 171.647 495.03 169.334 492.824 166.487C490.617 163.568 488.98 160.294 487.912 156.664C486.845 153.034 486.311 149.403 486.311 145.773C486.311 142.143 486.738 138.798 487.592 135.737C488.517 132.676 489.799 130.007 491.436 127.729C493.144 125.451 495.137 123.672 497.415 122.39C499.764 121.109 502.326 120.469 505.102 120.469C506.74 120.469 508.341 120.824 509.907 121.536C511.544 122.177 513.003 123.138 514.285 124.419C515.566 125.629 516.598 127.124 517.381 128.903C518.164 130.683 518.556 132.712 518.556 134.989C518.556 137.908 518.057 140.648 517.061 143.211C516.064 145.773 514.676 148.158 512.897 150.364C511.188 152.571 509.124 154.6 506.704 156.45C504.284 158.301 501.686 159.903 498.91 161.255ZM495.707 154.315C497.913 153.39 499.906 152.215 501.686 150.792C503.536 149.368 505.102 147.802 506.384 146.094C507.665 144.385 508.661 142.606 509.373 140.755C510.085 138.833 510.441 136.911 510.441 134.989C510.441 132.854 509.907 131.252 508.839 130.185C507.772 129.046 506.526 128.476 505.102 128.476C503.181 128.476 501.543 129.01 500.191 130.078C498.839 131.146 497.735 132.534 496.881 134.242C496.027 135.95 495.386 137.872 494.959 140.008C494.603 142.072 494.425 144.136 494.425 146.2C494.425 147.482 494.532 148.834 494.746 150.258C495.03 151.681 495.351 153.034 495.707 154.315Z" fill="#121642"/>
<path d="M553.256 129.117C552.971 131.039 552.615 132.854 552.188 134.562C551.761 136.2 551.334 137.659 550.907 138.94C550.551 140.15 550.231 141.147 549.946 141.93C549.661 142.713 549.483 143.14 549.412 143.211C548.7 144.848 547.455 145.667 545.675 145.667C544.679 145.667 543.753 145.311 542.899 144.599C542.045 143.816 541.618 142.855 541.618 141.716C541.618 141.289 541.689 140.969 541.832 140.755C541.974 140.542 542.187 140.114 542.472 139.474C542.757 138.833 543.113 137.765 543.54 136.271C543.967 134.776 544.501 132.463 545.141 129.331C543.931 129.331 542.686 129.295 541.404 129.224C540.123 129.153 538.949 128.903 537.881 128.476C536.742 128.049 535.817 127.373 535.105 126.448C534.393 125.522 534.037 124.241 534.037 122.604C534.037 121.394 534.393 119.757 535.105 117.693C535.746 115.628 536.635 113.6 537.774 111.607C538.913 109.614 540.194 107.905 541.618 106.482C543.042 104.987 544.465 104.239 545.889 104.239C547.526 104.239 548.843 104.844 549.839 106.055C550.907 107.265 551.726 108.759 552.295 110.539C552.865 112.247 553.256 114.062 553.47 115.984C553.754 117.906 553.897 119.579 553.897 121.002C555.107 121.002 556.281 121.002 557.42 121.002C558.63 120.931 559.769 120.896 560.837 120.896C564.894 120.896 567.99 121.785 570.126 123.565C572.261 125.344 573.329 128.263 573.329 132.32C573.329 133.957 573.222 135.666 573.009 137.445C572.795 139.225 572.546 141.075 572.261 142.997C571.977 144.848 571.727 146.699 571.514 148.549C571.3 150.4 571.194 152.215 571.194 153.995C571.194 156.557 571.549 158.693 572.261 160.401C572.973 162.038 573.863 163.355 574.931 164.351C575.998 165.348 577.137 166.06 578.347 166.487C579.557 166.843 580.661 167.021 581.657 167.021C584.718 167.021 587.601 166.024 590.306 164.031C593.01 162.038 595.502 159.653 597.779 156.877C600.057 154.03 602.086 151.041 603.865 147.909C605.716 144.777 607.246 142.036 608.457 139.687C608.812 139.047 609.311 138.548 609.951 138.193C610.592 137.837 611.268 137.659 611.98 137.659C613.261 137.659 614.258 138.086 614.97 138.94C615.681 139.723 616.037 140.613 616.037 141.609C616.037 142.321 615.895 142.962 615.61 143.531C613.973 146.45 612.051 149.759 609.845 153.461C607.709 157.091 605.253 160.508 602.477 163.711C599.701 166.914 596.569 169.619 593.082 171.825C589.665 174.032 585.892 175.135 581.764 175.135C579.201 175.135 576.781 174.637 574.503 173.64C572.226 172.715 570.233 171.363 568.524 169.583C566.887 167.732 565.57 165.49 564.574 162.857C563.577 160.152 563.079 157.127 563.079 153.781C563.079 150.222 563.435 146.699 564.147 143.211C564.858 139.652 565.214 136.271 565.214 133.068C565.214 131.715 564.894 130.719 564.253 130.078C563.684 129.366 562.367 129.01 560.303 129.01C559.306 129.01 558.203 129.01 556.993 129.01C555.854 129.01 554.608 129.046 553.256 129.117ZM546.102 121.216C546.102 120.718 546.067 120.077 545.996 119.294C545.996 118.44 545.924 117.621 545.782 116.838C545.711 116.055 545.569 115.379 545.355 114.81C545.213 114.24 545.035 113.956 544.821 113.956C544.608 113.956 544.323 114.24 543.967 114.81C543.682 115.308 543.362 115.949 543.006 116.732C542.65 117.443 542.33 118.226 542.045 119.081C541.76 119.935 541.547 120.647 541.404 121.216H546.102Z" fill="#121642"/>
<path d="M643.905 161.042C641.413 165.099 638.495 168.302 635.149 170.651C631.875 173 628.565 174.174 625.22 174.174C622.515 174.174 620.095 173.676 617.959 172.68C615.824 171.683 613.973 170.295 612.407 168.515C610.841 166.665 609.631 164.458 608.777 161.896C607.994 159.333 607.602 156.45 607.602 153.247C607.602 148.265 608.065 143.851 608.99 140.008C609.987 136.164 611.055 132.961 612.194 130.398C613.332 127.765 614.4 125.772 615.397 124.419C616.393 123.067 616.891 122.39 616.891 122.39C617.247 121.963 617.674 121.643 618.173 121.43C618.742 121.216 619.312 121.109 619.881 121.109C621.02 121.109 621.945 121.536 622.657 122.39C623.44 123.173 623.832 124.099 623.832 125.167C623.832 125.594 623.725 126.021 623.511 126.448C623.369 126.875 623.191 127.302 622.977 127.729C622.622 128.37 622.052 129.366 621.269 130.719C620.486 132 619.668 133.708 618.813 135.844C617.959 137.979 617.212 140.506 616.571 143.424C615.931 146.272 615.61 149.546 615.61 153.247C615.61 157.447 616.429 160.65 618.066 162.857C619.774 164.992 622.159 166.06 625.22 166.06C626.501 166.06 627.96 165.668 629.597 164.885C631.306 164.031 632.943 162.75 634.509 161.042C636.146 159.333 637.569 157.162 638.78 154.528C639.99 151.895 640.773 148.798 641.128 145.239L642.73 126.875C642.872 125.807 643.335 124.917 644.118 124.206C644.901 123.494 645.826 123.138 646.894 123.138C648.104 123.138 649.065 123.601 649.777 124.526C650.489 125.38 650.845 126.377 650.845 127.515L649.457 145.239C649.314 146.734 649.35 148.692 649.563 151.112C649.848 153.532 650.382 155.917 651.165 158.265C651.948 160.614 653.122 162.643 654.688 164.351C656.254 165.989 658.319 166.807 660.881 166.807C662.732 166.807 664.547 166.344 666.326 165.419C668.106 164.423 669.814 163.141 671.451 161.575C673.089 160.009 674.583 158.265 675.936 156.344C677.359 154.351 678.641 152.357 679.78 150.364C680.99 148.371 682.022 146.485 682.876 144.706C683.73 142.855 684.442 141.289 685.011 140.008C685.367 139.225 685.865 138.62 686.506 138.193C687.147 137.765 687.858 137.552 688.641 137.552C689.923 137.552 690.919 137.979 691.631 138.833C692.343 139.687 692.699 140.613 692.699 141.609C692.699 142.179 692.592 142.713 692.378 143.211C692.094 143.78 691.524 144.99 690.67 146.841C689.887 148.621 688.819 150.685 687.467 153.034C686.186 155.311 684.62 157.732 682.769 160.294C680.918 162.857 678.854 165.241 676.576 167.448C674.299 169.583 671.807 171.363 669.102 172.786C666.469 174.139 663.622 174.815 660.561 174.815C656.361 174.815 652.873 173.64 650.097 171.292C647.321 168.871 645.257 165.455 643.905 161.042Z" fill="#121642"/>
<path d="M280.855 12.4165C280.713 13.4842 280.25 14.3384 279.467 14.979C278.684 15.6196 277.794 15.9399 276.798 15.9399C276.655 15.9399 276.406 15.9399 276.05 15.9399C275.695 15.8688 274.876 15.8332 273.595 15.8332C272.242 15.8332 270.498 15.9755 268.363 16.2603C266.299 16.545 263.985 17.15 261.423 18.0754C258.932 18.9295 256.298 20.2108 253.522 21.9191C250.817 23.6274 248.148 25.9408 245.514 28.8592C242.88 31.7064 240.389 35.2655 238.04 39.5363C235.691 43.7359 233.698 48.8254 232.061 54.8045C231.207 57.7941 230.21 62.1005 229.071 67.7238C228.004 73.2759 226.829 79.5398 225.548 86.5155C224.338 93.4912 223.092 100.93 221.811 108.831C220.601 116.732 219.426 124.49 218.287 132.107C217.22 139.723 216.223 146.983 215.298 153.888C214.373 160.721 213.661 166.594 213.162 171.505C213.02 172.43 212.593 173.249 211.881 173.961C211.241 174.744 210.422 175.135 209.425 175.135C208.429 175.135 207.539 174.886 206.756 174.388C206.044 173.89 205.546 173.142 205.261 172.146C204.336 168.729 202.877 163.996 200.884 157.945C198.891 151.895 196.577 145.097 193.944 137.552C191.381 129.936 188.57 121.857 185.509 113.315C182.448 104.773 179.387 96.3384 176.327 88.0103C173.337 79.6109 170.419 71.6031 167.571 63.9868C164.795 56.2993 162.34 49.5372 160.204 43.7004C159.848 47.6865 159.279 52.1353 158.496 57.0467C157.784 61.887 156.787 67.1188 155.506 72.742C154.296 78.2941 152.766 84.2021 150.915 90.466C149.064 96.6587 146.858 103.101 144.295 109.792C140.309 120.042 135.611 128.797 130.202 136.057C124.863 143.318 119.24 149.368 113.332 154.208C107.424 159.048 101.409 162.892 95.2874 165.739C89.2371 168.515 83.5426 170.615 78.2041 172.039C72.8656 173.463 68.0609 174.352 63.79 174.708C59.5192 175.135 56.2449 175.349 53.9671 175.349C46.1373 175.349 38.9124 174.317 32.2926 172.252C25.744 170.188 20.0496 167.27 15.2093 163.497C10.4402 159.653 6.70323 155.098 3.99837 149.831C1.36469 144.492 0.0478516 138.62 0.0478516 132.213C0.0478516 126.448 1.3291 121.074 3.8916 116.091C6.52528 111.037 10.0131 106.66 14.3551 102.958C18.7683 99.2568 23.7866 96.3384 29.4098 94.203C35.1043 92.0675 41.0123 90.9998 47.1338 90.9998C52.1876 90.9998 56.7076 91.4981 60.6937 92.4946C64.751 93.4912 68.31 94.7724 71.3708 96.3384C74.5027 97.8332 77.172 99.4703 79.3786 101.25C81.6564 103.029 83.5071 104.738 84.9307 106.375C86.4255 107.941 87.5288 109.293 88.2406 110.432C89.0235 111.571 89.4862 112.247 89.6286 112.461C89.9133 113.03 90.0557 113.671 90.0557 114.383C90.0557 115.379 89.6642 116.305 88.8812 117.159C88.1694 118.013 87.2084 118.44 85.9984 118.44C84.4324 118.44 83.2579 117.728 82.4749 116.305C82.4038 116.091 81.692 115.094 80.3395 113.315C79.0583 111.464 77.0296 109.471 74.2536 107.336C71.5487 105.2 68.0253 103.278 63.6833 101.57C59.3413 99.7906 54.0739 98.9009 47.8812 98.9009C42.8274 98.9009 37.8803 99.755 33.04 101.463C28.2709 103.172 24.0357 105.521 20.3343 108.51C16.6329 111.5 13.6433 115.059 11.3656 119.187C9.15896 123.245 8.05566 127.658 8.05566 132.427C8.05566 137.623 9.26573 142.392 11.6859 146.734C14.106 151.005 17.3803 154.671 21.5088 157.732C25.7084 160.792 30.5487 163.177 36.0296 164.885C41.5817 166.522 47.4897 167.341 53.7536 167.341C56.1737 167.341 59.3768 167.163 63.363 166.807C67.3491 166.451 71.7979 165.633 76.7093 164.351C81.692 163.07 86.9237 161.148 92.4046 158.586C97.8855 155.952 103.295 152.393 108.634 147.909C113.972 143.424 119.062 137.837 123.902 131.146C128.813 124.455 133.12 116.34 136.821 106.802C140.665 96.979 143.655 87.6544 145.79 78.828C147.997 69.9304 149.634 61.9226 150.702 54.8045C151.769 47.6865 152.41 41.6361 152.623 36.6535C152.908 31.5997 153.05 28.005 153.05 25.8696V23.7342C153.05 22.5953 153.406 21.6344 154.118 20.8514C154.901 19.9972 155.898 19.5702 157.108 19.5702C158.887 19.5702 160.133 20.4599 160.845 22.2394C161.058 22.7377 161.663 24.4104 162.66 27.2577C163.728 30.1049 165.08 33.8063 166.717 38.3618C168.425 42.8462 170.347 48.0424 172.483 53.9504C174.689 59.8583 177.003 66.1578 179.423 72.8488C181.843 79.4686 184.334 86.3375 186.897 93.4556C189.459 100.574 191.951 107.585 194.371 114.489C196.862 121.394 199.211 128.049 201.418 134.456C203.624 140.862 205.617 146.699 207.397 151.966C208.18 146.272 209.034 140.257 209.959 133.922C210.885 127.515 211.846 121.074 212.842 114.596C213.91 108.048 214.942 101.641 215.938 95.3774C217.006 89.1136 218.038 83.2412 219.035 77.7603C220.103 72.2794 221.063 67.3679 221.918 63.0259C222.772 58.6839 223.555 55.196 224.267 52.5623C225.833 46.2985 228.075 40.4616 230.993 35.0519C233.912 29.571 237.435 24.8019 241.563 20.7446C245.763 16.6873 250.532 13.5198 255.871 11.242C261.28 8.89307 267.26 7.71859 273.808 7.71859C276.3 7.71859 278.079 8.00331 279.147 8.57275C280.286 9.1422 280.855 10.2455 280.855 11.8827V12.4165Z" fill="#121642"/>
<path d="M286.194 183.463C299.576 166.024 308.865 151.539 314.061 140.008C314.417 139.225 314.879 138.655 315.449 138.299C316.09 137.872 316.801 137.659 317.584 137.659C318.794 137.659 319.791 138.086 320.574 138.94C321.357 139.723 321.748 140.648 321.748 141.716C321.748 142.214 321.642 142.713 321.428 143.211C318.296 150.329 313.847 158.265 308.082 167.021C302.316 175.776 295.02 185.67 286.194 196.703C286.194 201.187 286.229 205.672 286.3 210.156C286.372 214.64 286.407 219.552 286.407 224.89C286.407 230.229 286.265 235.496 285.98 240.693C285.767 245.96 285.34 250.943 284.699 255.64C284.058 260.41 283.169 264.787 282.03 268.773C280.962 272.831 279.538 276.318 277.759 279.237C276.05 282.226 273.951 284.54 271.459 286.177C269.039 287.885 266.156 288.739 262.811 288.739C258.042 288.739 254.376 286.924 251.813 283.294C249.251 279.664 247.97 274.503 247.97 267.812C247.97 264.253 248.29 260.374 248.931 256.174C249.642 252.046 250.639 247.775 251.92 243.362C253.201 238.949 254.732 234.464 256.511 229.909C258.362 225.424 260.391 221.047 262.597 216.776C264.804 212.505 267.188 208.412 269.751 204.497C272.385 200.582 275.161 197.023 278.079 193.82C278.15 188.838 278.186 183.89 278.186 178.979C278.257 174.068 278.364 169.548 278.506 165.419C276.371 168.124 273.808 170.259 270.819 171.825C267.9 173.391 264.982 174.174 262.063 174.174C259.572 174.174 257.294 173.712 255.23 172.786C253.237 171.79 251.529 170.437 250.105 168.729C248.682 166.949 247.578 164.885 246.795 162.536C246.012 160.187 245.621 157.625 245.621 154.849C245.621 149.297 246.546 144.421 248.397 140.221C250.319 135.95 252.739 132.391 255.657 129.544C258.576 126.697 261.779 124.561 265.267 123.138C268.826 121.714 272.242 121.002 275.517 121.002C277.723 121.002 279.752 121.287 281.603 121.857C283.453 122.426 285.019 123.067 286.3 123.778C287.653 124.49 288.685 125.167 289.397 125.807C290.109 126.448 290.5 126.804 290.571 126.875C291.354 127.729 291.746 128.69 291.746 129.758C291.746 130.825 291.354 131.786 290.571 132.64C289.788 133.423 288.863 133.815 287.795 133.815C286.799 133.815 285.838 133.423 284.912 132.64C284.628 132.427 284.236 132.142 283.738 131.786C283.311 131.359 282.706 130.932 281.923 130.505C281.211 130.078 280.321 129.722 279.254 129.437C278.257 129.153 277.047 129.01 275.623 129.01C273.488 129.01 271.139 129.509 268.577 130.505C266.014 131.43 263.629 132.925 261.423 134.989C259.216 137.054 257.366 139.723 255.871 142.997C254.376 146.2 253.629 150.08 253.629 154.635C253.629 158.052 254.376 160.828 255.871 162.963C257.366 165.028 259.679 166.06 262.811 166.06C264.306 166.06 265.872 165.633 267.509 164.778C269.217 163.924 270.854 162.607 272.42 160.828C273.986 159.048 275.339 156.806 276.478 154.101C277.688 151.397 278.542 148.193 279.04 144.492C279.182 143.496 279.645 142.677 280.428 142.036C281.211 141.324 282.136 140.969 283.204 140.969C284.414 140.969 285.34 141.396 285.98 142.25C286.692 143.104 287.048 144.065 287.048 145.133C287.048 145.204 287.012 146.307 286.941 148.443C286.87 150.507 286.799 153.283 286.728 156.771C286.656 160.259 286.55 164.316 286.407 168.943C286.336 173.498 286.265 178.338 286.194 183.463ZM278.079 206.846C274.734 211.473 271.708 216.491 269.004 221.901C266.299 227.382 263.985 232.898 262.063 238.45C260.142 244.002 258.647 249.377 257.579 254.573C256.583 259.84 256.084 264.538 256.084 268.667C256.084 271.3 256.298 273.4 256.725 274.966C257.223 276.532 257.793 277.742 258.433 278.596C259.145 279.45 259.892 280.02 260.675 280.305C261.53 280.589 262.313 280.732 263.024 280.732C265.231 280.732 267.153 279.842 268.79 278.062C270.427 276.283 271.815 273.898 272.954 270.909C274.093 267.99 275.018 264.609 275.73 260.765C276.442 256.922 276.976 252.936 277.332 248.807C277.688 244.75 277.937 240.693 278.079 236.635C278.221 232.578 278.293 228.841 278.293 225.424C278.293 222.364 278.293 219.303 278.293 216.242C278.293 213.181 278.221 210.049 278.079 206.846Z" fill="#121642"/>
<path d="M396.702 143.211C396.417 143.78 395.812 144.99 394.886 146.841C394.032 148.621 392.893 150.685 391.47 153.034C390.117 155.383 388.516 157.838 386.665 160.401C384.814 162.963 382.75 165.312 380.472 167.448C378.195 169.583 375.739 171.363 373.105 172.786C370.471 174.139 367.695 174.815 364.777 174.815C360.649 174.815 357.161 173.498 354.313 170.864C351.537 168.231 349.509 164.921 348.228 160.935C345.807 164.992 342.925 168.231 339.579 170.651C336.234 173 332.888 174.174 329.543 174.174C326.909 174.174 324.524 173.712 322.389 172.786C320.254 171.79 318.438 170.437 316.944 168.729C315.449 166.949 314.274 164.885 313.42 162.536C312.637 160.187 312.246 157.625 312.246 154.849C312.246 149.297 313.171 144.421 315.022 140.221C316.944 135.95 319.364 132.391 322.282 129.544C325.201 126.697 328.404 124.561 331.892 123.138C335.451 121.714 338.867 121.002 342.142 121.002C344.348 121.002 346.377 121.323 348.228 121.963C350.078 122.533 351.644 123.173 352.925 123.885C354.278 124.597 355.31 125.273 356.022 125.914C356.734 126.483 357.125 126.804 357.196 126.875C357.979 127.8 358.371 128.761 358.371 129.758C358.371 130.825 357.979 131.786 357.196 132.64C356.413 133.423 355.488 133.815 354.42 133.815C353.281 133.815 352.32 133.423 351.537 132.64C351.395 132.498 351.075 132.249 350.577 131.893C350.078 131.466 349.402 131.039 348.548 130.612C347.694 130.185 346.662 129.829 345.452 129.544C344.313 129.188 342.996 129.01 341.501 129.01C339.294 129.01 336.945 129.509 334.454 130.505C331.963 131.502 329.685 133.068 327.621 135.203C325.557 137.267 323.813 139.901 322.389 143.104C321.037 146.236 320.36 149.973 320.36 154.315C320.36 155.667 320.503 157.055 320.787 158.479C321.072 159.831 321.57 161.077 322.282 162.216C322.994 163.355 323.955 164.28 325.165 164.992C326.375 165.704 327.87 166.06 329.649 166.06C330.931 166.06 332.39 165.633 334.027 164.778C335.735 163.924 337.337 162.607 338.832 160.828C340.398 159.048 341.786 156.806 342.996 154.101C344.277 151.397 345.167 148.193 345.665 144.492C345.807 143.496 346.27 142.677 347.053 142.036C347.836 141.324 348.761 140.969 349.829 140.969C350.826 140.969 351.68 141.36 352.392 142.143C353.175 142.926 353.602 143.816 353.673 144.812C353.744 146.165 353.886 148.087 354.1 150.578C354.313 152.998 354.776 155.418 355.488 157.838C356.271 160.259 357.41 162.358 358.905 164.138C360.399 165.917 362.464 166.807 365.097 166.807C366.806 166.807 368.478 166.344 370.116 165.419C371.824 164.494 373.461 163.284 375.027 161.789C376.664 160.223 378.195 158.479 379.618 156.557C381.113 154.564 382.465 152.571 383.675 150.578C384.886 148.585 385.953 146.663 386.879 144.812C387.804 142.962 388.587 141.36 389.228 140.008C389.583 139.225 390.082 138.62 390.722 138.193C391.434 137.765 392.182 137.552 392.965 137.552C394.175 137.552 395.136 138.015 395.847 138.94C396.63 139.794 397.022 140.719 397.022 141.716C397.022 142.214 396.915 142.713 396.702 143.211Z" fill="#121642"/>
<path d="M400.545 129.117C400.261 131.039 399.905 132.854 399.478 134.562C399.05 136.2 398.623 137.659 398.196 138.94C397.84 140.15 397.52 141.147 397.235 141.93C396.951 142.713 396.773 143.14 396.702 143.211C395.99 144.848 394.744 145.667 392.965 145.667C391.968 145.667 391.043 145.311 390.189 144.599C389.334 143.816 388.907 142.855 388.907 141.716C388.907 141.289 388.978 140.969 389.121 140.755C389.263 140.542 389.477 140.114 389.761 139.474C390.046 138.833 390.402 137.765 390.829 136.271C391.256 134.776 391.79 132.463 392.431 129.331C391.221 129.331 389.975 129.295 388.694 129.224C387.412 129.153 386.238 128.903 385.17 128.476C384.031 128.049 383.106 127.373 382.394 126.448C381.682 125.522 381.327 124.241 381.327 122.604C381.327 121.394 381.682 119.757 382.394 117.693C383.035 115.628 383.925 113.6 385.064 111.607C386.202 109.614 387.484 107.905 388.907 106.482C390.331 104.987 391.754 104.239 393.178 104.239C394.815 104.239 396.132 104.844 397.129 106.055C398.196 107.265 399.015 108.759 399.584 110.539C400.154 112.247 400.545 114.062 400.759 115.984C401.044 117.906 401.186 119.579 401.186 121.002C402.396 121.002 403.57 121.002 404.709 121.002C405.919 120.931 407.058 120.896 408.126 120.896C412.183 120.896 415.28 121.785 417.415 123.565C419.55 125.344 420.618 128.263 420.618 132.32C420.618 133.957 420.511 135.666 420.298 137.445C420.084 139.225 419.835 141.075 419.55 142.997C419.266 144.848 419.017 146.699 418.803 148.549C418.59 150.4 418.483 152.215 418.483 153.995C418.483 156.557 418.839 158.693 419.55 160.401C420.262 162.038 421.152 163.355 422.22 164.351C423.287 165.348 424.426 166.06 425.636 166.487C426.846 166.843 427.95 167.021 428.946 167.021C432.007 167.021 434.89 166.024 437.595 164.031C440.3 162.038 442.791 159.653 445.069 156.877C447.346 154.03 449.375 151.041 451.155 147.909C453.005 144.777 454.536 142.036 455.746 139.687C456.102 139.047 456.6 138.548 457.241 138.193C457.881 137.837 458.557 137.659 459.269 137.659C460.55 137.659 461.547 138.086 462.259 138.94C462.971 139.723 463.327 140.613 463.327 141.609C463.327 142.321 463.184 142.962 462.899 143.531C461.262 146.45 459.34 149.759 457.134 153.461C454.998 157.091 452.543 160.508 449.767 163.711C446.991 166.914 443.859 169.619 440.371 171.825C436.954 174.032 433.182 175.135 429.053 175.135C426.491 175.135 424.07 174.637 421.793 173.64C419.515 172.715 417.522 171.363 415.814 169.583C414.176 167.732 412.86 165.49 411.863 162.857C410.866 160.152 410.368 157.127 410.368 153.781C410.368 150.222 410.724 146.699 411.436 143.211C412.148 139.652 412.504 136.271 412.504 133.068C412.504 131.715 412.183 130.719 411.543 130.078C410.973 129.366 409.656 129.01 407.592 129.01C406.596 129.01 405.492 129.01 404.282 129.01C403.143 129.01 401.898 129.046 400.545 129.117ZM393.392 121.216C393.392 120.718 393.356 120.077 393.285 119.294C393.285 118.44 393.214 117.621 393.071 116.838C393 116.055 392.858 115.379 392.644 114.81C392.502 114.24 392.324 113.956 392.11 113.956C391.897 113.956 391.612 114.24 391.256 114.81C390.971 115.308 390.651 115.949 390.295 116.732C389.939 117.443 389.619 118.226 389.334 119.081C389.05 119.935 388.836 120.647 388.694 121.216H393.392Z" fill="#121642"/>
<path d="M473.149 89.1847C473.149 91.8896 472.188 94.203 470.267 96.1248C468.416 97.9755 466.138 98.9009 463.433 98.9009C460.728 98.9009 458.415 97.9755 456.493 96.1248C454.642 94.203 453.717 91.8896 453.717 89.1847C453.717 87.8323 453.966 86.5866 454.465 85.4478C454.963 84.2377 455.639 83.2056 456.493 82.3514C457.419 81.4261 458.451 80.7143 459.59 80.216C460.8 79.7177 462.081 79.4686 463.433 79.4686C464.786 79.4686 466.031 79.7177 467.17 80.216C468.38 80.7143 469.412 81.4261 470.267 82.3514C471.192 83.2056 471.904 84.2377 472.402 85.4478C472.9 86.5866 473.149 87.8323 473.149 89.1847ZM455.853 151.752C455.853 141.502 456.493 131.288 457.774 121.109C457.917 120.113 458.344 119.259 459.056 118.547C459.839 117.764 460.835 117.372 462.045 117.372C463.113 117.372 464.003 117.799 464.715 118.653C465.426 119.436 465.782 120.362 465.782 121.43C465.782 121.857 465.675 123.138 465.462 125.273C465.32 127.409 465.106 129.971 464.821 132.961C464.608 135.879 464.394 139.011 464.181 142.357C464.038 145.631 463.967 148.656 463.967 151.432C463.967 155.205 464.323 158.265 465.035 160.614C465.818 162.892 466.779 164.672 467.918 165.953C469.128 167.234 470.373 168.088 471.655 168.515C473.007 168.943 474.288 169.156 475.498 169.156C477.491 169.156 479.556 168.444 481.691 167.021C483.826 165.597 485.998 163.604 488.204 161.042C490.482 158.479 492.76 155.418 495.037 151.859C497.315 148.229 499.557 144.207 501.764 139.794C502.12 139.082 502.618 138.548 503.259 138.193C503.899 137.765 504.611 137.552 505.394 137.552C506.533 137.552 507.458 137.979 508.17 138.833C508.953 139.687 509.345 140.613 509.345 141.609C509.345 142.321 509.202 142.926 508.918 143.424C508.063 145.061 506.996 147.055 505.715 149.403C504.433 151.752 502.974 154.173 501.337 156.664C499.7 159.155 497.885 161.647 495.892 164.138C493.97 166.558 491.905 168.765 489.699 170.758C487.492 172.68 485.179 174.245 482.759 175.456C480.339 176.666 477.883 177.271 475.392 177.271C472.188 177.271 469.377 176.594 466.957 175.242C464.537 173.89 462.472 172.075 460.764 169.797C459.127 167.519 457.881 164.85 457.027 161.789C456.244 158.657 455.853 155.311 455.853 151.752ZM467.17 89.1847C467.17 88.1882 466.779 87.334 465.996 86.6222C465.284 85.8393 464.43 85.4478 463.433 85.4478C462.437 85.4478 461.583 85.8393 460.871 86.6222C460.159 87.334 459.803 88.1882 459.803 89.1847C459.803 90.1813 460.159 91.0354 460.871 91.7472C461.583 92.459 462.437 92.8149 463.433 92.8149C464.43 92.8149 465.284 92.459 465.996 91.7472C466.779 91.0354 467.17 90.1813 467.17 89.1847Z" fill="#121642"/>
</svg>
